<?xml version="1.0" encoding="utf-8"?>
<!-- Svg Vector Icons : http://www.onlinewebfonts.com/icon -->
<!DOCTYPE svg PUBLIC "-//W3C//DTD SVG 1.1//EN" "http://www.w3.org/Graphics/SVG/1.1/DTD/svg11.dtd">
<svg version="1.1" xmlns="http://www.w3.org/2000/svg" xmlns:xlink="http://www.w3.org/1999/xlink" x="0px" y="0px" viewBox="0 0 1000 1000" enable-background="new 0 0 1000 1000" xml:space="preserve">
<metadata> Svg Vector Icons : http://www.onlinewebfonts.com/icon </metadata>
<g><g transform="translate(0.000000,512.000000) scale(0.100000,-0.100000)"><path d="M2422.4,4979.8c-45.9-23-99.5-70.8-124.4-109.1c-42.1-68.9-44-90-49.8-572.4l-5.8-503.5h-779.2c-769.6,0-779.2-1.9-855.8-44c-118.7-65.1-157-164.6-181.9-457.6c-45.9-536.1,67-1075.9,304.4-1435.9c262.3-398.2,687.3-779.2,1076-961.1c212.5-99.6,371.4-141.7,583.9-158.9l155.1-11.5l84.2-172.3c398.2-823.2,1133.4-1430.1,1922.2-1589l134-26.8l5.7-940l3.8-940l-501.6-5.7c-467.1-5.7-509.2-7.6-570.5-45.9c-201-116.8-208.7-405.9-15.3-524.6c61.3-36.4,99.5-38.3,1384.2-38.3c1275.1,0,1322.9,1.9,1382.3,38.3c227.8,137.9,176.1,495.9-82.3,557.1c-42.1,7.7-279.5,17.2-528.4,17.2h-455.6v934.3v936.2l139.8,23C6262.9-909.2,6998-310,7407.7,551.6l82.3,174.2l149.3,13.4c417.4,34.5,806,231.7,1202.3,608.8c333.1,319.7,507.3,566.7,618.4,880.7c97.6,279.5,124.4,463.3,124.4,838.5c0,379.1-23,524.6-99.6,614.6c-93.8,111-103.4,113-941.9,113h-765.8v428.8c0,593.5-21,677.7-183.8,758.1c-76.6,38.3-109.1,38.3-2584.6,38.3C2504.7,5020,2502.8,5020,2422.4,4979.8z M7139.7,3034.7c-5.7-1342.1-7.7-1378.4-49.8-1566.1c-189.5-850-645.2-1502.9-1257.8-1807.3c-786.9-390.5-1723.1-157-2314.7,578.2c-319.7,396.3-515,844.3-614.6,1411c-26.8,153.2-34.5,377.2-40.2,1441.6c-5.7,693.1-3.8,1271.2,1.9,1286.5c9.6,24.9,283.3,28.7,2146.2,28.7h2136.6L7139.7,3034.7z M2244.3,2670.9c0-549.5,21.1-874.9,68.9-1133.4c15.3-88.1,24.9-164.6,19.1-168.5c-19.1-19.1-273.8,70.8-382.9,137.9c-413.5,248.9-767.7,683.5-863.4,1060.6c-34.5,137.8-67,486.3-53.6,564.8l9.6,49.8h601.2h601.2V2670.9z M8977.6,2977.2c-19.2-369.5-101.5-641.4-256.6-850c-116.8-158.9-354.2-404-492-509.3c-126.3-95.7-382.9-224-488.2-245.1c-63.2-13.4-63.2-11.5-51.7,36.4c49.8,197.2,70.8,497.8,82.3,1108.5l11.5,664.3H8386h603.1L8977.6,2977.2z"/><path d="M2366.8-4217.5c-189.5-112.9-189.5-375.2-1.9-515l53.6-40.2l2548.2-5.7c2548.2-3.8,2548.2-3.8,2630.5,36.4c206.8,99.6,227.8,384.8,42.1,518.8l-63.2,44l-2565.4,3.8l-2565.4,5.8L2366.8-4217.5z"/></g></g>
</svg>